<svg aria-hidden="true" style="position: absolute; width: 0; height: 0; overflow: hidden;" version="1.1" xmlns="http://www.w3.org/2000/svg" xmlns:xlink="http://www.w3.org/1999/xlink">
<defs>
<symbol id="icon-IMAGE" viewBox="0 0 134 32">
<path fill="#fff" style="fill: var(--color1, #fff)" d="M27.697 6.045c-1.127 0-1.913-0.535-2.356-1.605-1.639 0-3.438 0.398-5.396 1.195-1.218 0.501-2.038 0.962-2.459 1.383s-0.646 0.751-0.674 0.99 0.088 0.441 0.35 0.606c0.262 0.165 0.629 0.322 1.101 0.47s1.022 0.296 1.648 0.444c3.279 0.763 5.356 1.292 6.233 1.588 1.742 0.581 3.045 1.218 3.91 1.912 0.82 0.694 1.229 1.639 1.229 2.835 0 0.99-0.304 1.827-0.913 2.51s-1.415 1.292-2.416 1.827c-1.002 0.535-2.12 1.010-3.355 1.426s-2.539 0.771-3.91 1.067c-1.372 0.296-2.724 0.541-4.055 0.734-2.607 0.364-4.832 0.546-6.677 0.546-3.358 0-5.948-0.404-7.769-1.212-0.683-0.307-1.241-1.076-1.673-2.305-0.342-1.013-0.512-1.847-0.512-2.502s0.057-1.016 0.171-1.084c0.114-0.068 0.347-0.071 0.7-0.009s0.814 0.168 1.383 0.316l2.049 0.546c3.176 0.797 6.534 1.195 10.075 1.195 2.607 0 4.815-0.233 6.625-0.7 1.070-0.285 1.639-0.603 1.708-0.956 0.045-0.307-0.797-0.689-2.527-1.144-0.785-0.216-1.696-0.444-2.732-0.683-5.020-1.218-8.048-2.004-9.084-2.356s-1.71-0.666-2.023-0.939c-0.313-0.273-0.572-0.575-0.777-0.905-0.376-0.649-0.564-1.266-0.564-1.853s0.031-1.039 0.094-1.358c0.063-0.319 0.151-0.615 0.265-0.888 0.239-0.558 0.541-0.939 0.905-1.144 2.926-1.639 7.223-3.079 12.892-4.32 5.043-1.116 9.192-1.673 12.448-1.673 0.66 0 1.155 0.114 1.486 0.342 0.569 0.421 0.82 0.871 0.751 1.349s-0.213 0.919-0.435 1.323c-0.222 0.404-0.498 0.768-0.828 1.093s-0.697 0.609-1.101 0.854c-0.404 0.245-0.822 0.447-1.255 0.606-0.865 0.319-1.708 0.478-2.527 0.478zM40.555 18.954c0.376-0.159 0.899-0.41 1.571-0.751 4.11-2.106 6.364-3.267 6.762-3.483l0.717-0.393c0.74-0.478 1.081-0.854 1.025-1.127-0.125-0.581-0.438-0.817-0.939-0.709s-1.022 0.253-1.562 0.436c-0.541 0.182-1.113 0.404-1.716 0.666-1.264 0.524-2.374 1.047-3.33 1.571-3.347 1.924-5.362 3.091-6.045 3.5-0.489 1.104-0.928 2.203-1.315 3.296l-2.066 5.84c-0.649 1.81-1.303 3.034-1.964 3.671-0.353 0.353-0.746 0.529-1.178 0.529-1.070 0-1.913-0.373-2.527-1.119s-0.922-1.69-0.922-2.835 0.148-2.271 0.444-3.381c0.296-1.11 0.706-2.234 1.229-3.372 1.059-2.3 2.476-4.445 4.252-6.438 1.081-2.903 2.88-5.72 5.396-8.452 1.537-1.662 2.965-2.835 4.286-3.518 0.66-0.341 1.224-0.512 1.691-0.512s0.82 0.105 1.059 0.316 0.359 0.472 0.359 0.785c0 0.313-0.097 0.709-0.29 1.187s-0.455 1.013-0.786 1.605-0.717 1.224-1.161 1.895l-1.417 2.066c-0.114 0.171-0.171 0.324-0.171 0.461 0 0.216 0.131 0.324 0.393 0.324 0.296 0 0.842-0.188 1.639-0.563l2.732-1.264c2.391-1.081 4.679-1.622 6.865-1.622 1.138 0 2.208 0.541 3.21 1.622 1.013 1.093 1.52 2.265 1.52 3.518 0 1.935-0.791 3.426-2.374 4.474l-2.117 1.4c-0.763 0.478-1.548 0.951-2.356 1.417l-2.459 1.349c-2.766 1.434-4.904 2.151-6.412 2.151s-2.604-0.188-3.287-0.563c-0.683-0.376-1.025-0.905-1.025-1.588 0-0.922 0.757-1.719 2.271-2.391zM75.919 12.704c0 0.615 0.524 0.922 1.571 0.922 0.774 0 1.787-0.376 3.039-1.127l1.366-0.751c0.421-0.239 0.788-0.359 1.101-0.359s0.561 0.097 0.743 0.29c0.182 0.194 0.273 0.461 0.273 0.803s-0.114 0.737-0.342 1.187c-0.228 0.45-0.541 0.922-0.939 1.417s-0.865 0.985-1.4 1.469-1.11 0.919-1.725 1.306c-1.366 0.854-2.635 1.281-3.808 1.281-1.241 0-2.231-0.211-2.971-0.632-0.228-0.137-0.45-0.279-0.666-0.427-1.218 1.389-2.983 2.664-5.294 3.825-2.459 1.229-4.605 1.844-6.438 1.844-1.924 0-3.444-0.757-4.559-2.271-0.899-1.229-1.349-2.476-1.349-3.74 0-1.821 0.973-3.557 2.92-5.208 1.434-1.207 2.82-2.123 4.158-2.749s2.547-1.11 3.629-1.451c2.288-0.717 4.349-1.076 6.181-1.076 0.82 0 1.551 0.157 2.194 0.47s1.118 0.629 1.426 0.948c0.729 0.717 1.093 1.634 1.093 2.749 0 0.33-0.034 0.586-0.103 0.768s-0.102 0.353-0.102 0.512zM61.951 15.932l-0.017 0.051v0.017c0 0.49 0.108 0.808 0.324 0.956 0.524 0.319 1.076 0.401 1.656 0.248s1.133-0.344 1.656-0.572c1.298-0.558 2.47-1.264 3.518-2.117-0.182-0.364-0.273-0.74-0.273-1.127 0-0.82 0.359-1.639 1.076-2.459-0.911 0-2.14 0.427-3.688 1.281-1.708 0.945-2.988 1.918-3.842 2.92-0.273 0.341-0.41 0.609-0.41 0.803zM99.142 12.704c0 0.615 0.524 0.922 1.571 0.922 0.774 0 1.787-0.376 3.039-1.127l1.366-0.751c0.421-0.239 0.788-0.359 1.101-0.359s0.561 0.097 0.742 0.29c0.182 0.194 0.274 0.461 0.274 0.803s-0.114 0.737-0.342 1.187c-0.227 0.45-0.54 0.922-0.939 1.417s-0.865 0.985-1.4 1.469-1.11 0.919-1.725 1.306c-1.366 0.854-2.635 1.281-3.808 1.281-1.241 0-2.231-0.211-2.971-0.632-0.228-0.137-0.45-0.279-0.666-0.427-1.218 1.389-2.983 2.664-5.293 3.825-2.459 1.229-4.605 1.844-6.438 1.844-1.924 0-3.444-0.757-4.559-2.271-0.899-1.229-1.349-2.476-1.349-3.74 0-1.821 0.973-3.557 2.92-5.208 1.434-1.207 2.82-2.123 4.158-2.749s2.547-1.11 3.629-1.451c2.288-0.717 4.349-1.076 6.181-1.076 0.82 0 1.551 0.157 2.194 0.47s1.118 0.629 1.426 0.948c0.729 0.717 1.093 1.634 1.093 2.749 0 0.33-0.034 0.586-0.103 0.768s-0.102 0.353-0.102 0.512zM85.174 15.932l-0.017 0.051v0.017c0 0.49 0.108 0.808 0.324 0.956 0.524 0.319 1.076 0.401 1.656 0.248s1.133-0.344 1.656-0.572c1.298-0.558 2.47-1.264 3.518-2.117-0.182-0.364-0.273-0.74-0.273-1.127 0-0.82 0.359-1.639 1.076-2.459-0.911 0-2.14 0.427-3.688 1.281-1.708 0.945-2.988 1.918-3.842 2.92-0.273 0.341-0.41 0.609-0.41 0.803zM123.27 14.053c0 1.036 0.301 1.554 0.905 1.554 1.481 0 3.404-1.002 5.772-3.005l0.461-0.393c0.923-0.615 1.67-0.922 2.245-0.922s0.94 0.085 1.093 0.256c0.154 0.171 0.23 0.444 0.23 0.82 0 0.842-0.427 1.736-1.281 2.681-1.275 1.548-3.022 3.017-5.242 4.406-2.573 1.617-4.878 2.425-6.916 2.425-1.423 0-2.317-0.791-2.681-2.374-0.102-0.41-0.177-0.802-0.222-1.178-0.114-0.911-0.234-1.417-0.358-1.52-0.126-0.102-0.373-0.094-0.743 0.026s-0.807 0.319-1.314 0.598-1.068 0.618-1.682 1.016c-3.257 2.163-5.129 3.398-5.618 3.706-1.172 0.729-1.964 1.093-2.374 1.093s-0.811-0.085-1.204-0.256c-0.393-0.171-0.737-0.387-1.033-0.649-0.615-0.581-0.922-1.173-0.922-1.776 0-3.449 0.751-6.466 2.254-9.050 1.002-1.742 2.231-2.948 3.688-3.62 0.74-0.353 1.537-0.529 2.39-0.529 1.559 0 2.34 0.512 2.34 1.537 0 0.626-0.37 1.651-1.11 3.074l-0.512 1.007c-0.365 0.694-0.541 1.087-0.53 1.178 0.068 0.341 0.223 0.512 0.462 0.512 0.261 0 0.649-0.194 1.161-0.581l3.142-2.339 1.571-1.093c1.81-1.184 3.141-1.776 3.996-1.776 0.455 0 0.87 0.182 1.246 0.546 0.694 0.66 1.042 1.235 1.042 1.725 0 0.159-0.015 0.353-0.043 0.581-0.029 0.228-0.060 0.472-0.094 0.734l-0.068 0.803c-0.034 0.273-0.051 0.535-0.051 0.786z"></path>
</symbol>
</defs>
</svg>
